<svg id="svg" version="1.1" xmlns="http://www.w3.org/2000/svg" xmlns:xlink="http://www.w3.org/1999/xlink" width="400" height="400" viewBox="0, 0, 400,400"><g id="svgg"><path id="path0" d="M331.200 69.000 L 331.200 111.200 348.200 111.200 L 365.200 111.200 365.200 69.000 L 365.200 26.800 348.200 26.800 L 331.200 26.800 331.200 69.000 M158.687 28.447 C 148.887 29.391,137.587 32.714,127.400 37.647 C 119.356 41.543,110.097 48.235,103.422 54.978 L 100.233 58.200 103.816 58.335 C 111.303 58.616,126.078 57.008,136.600 54.768 C 147.020 52.550,149.170 51.893,154.200 49.393 C 161.890 45.571,168.834 38.883,173.182 31.112 C 173.886 29.854,174.348 28.639,174.208 28.412 C 173.905 27.922,163.903 27.944,158.687 28.447 M303.850 138.450 C 303.425 140.576,303.559 219.441,303.990 220.574 L 304.380 221.600 349.990 221.600 C 380.130 221.600,395.600 221.464,395.600 221.200 C 395.600 220.980,395.960 220.800,396.400 220.800 C 396.840 220.800,397.200 220.620,397.200 220.400 C 397.200 220.180,397.476 220.000,397.813 220.000 C 398.149 220.000,398.544 219.685,398.690 219.300 C 398.836 218.915,399.190 218.362,399.478 218.071 C 399.900 217.644,400.000 210.283,400.000 179.590 C 400.000 141.883,399.926 139.600,398.712 139.600 C 398.515 139.600,398.464 139.420,398.600 139.200 C 398.736 138.980,398.477 138.800,398.024 138.800 C 397.571 138.800,397.200 138.620,397.200 138.400 C 397.200 138.180,396.840 138.000,396.400 138.000 C 395.960 138.000,395.600 137.820,395.600 137.600 C 395.600 137.336,380.083 137.200,349.850 137.200 L 304.100 137.200 303.850 138.450 M357.667 166.554 C 368.586 171.720,368.463 187.122,357.463 192.154 C 355.041 193.262,347.966 193.716,347.400 192.800 C 347.264 192.580,346.881 192.400,346.548 192.400 C 344.676 192.400,340.619 188.566,338.929 185.200 C 337.637 182.627,337.319 176.731,338.354 174.561 C 338.658 173.922,339.098 172.987,339.331 172.481 C 342.121 166.438,351.210 163.500,357.667 166.554 M182.117 193.015 C 168.281 194.795,156.208 199.978,146.981 208.100 C 144.870 209.958,144.880 210.478,147.033 210.915 C 147.895 211.089,149.410 211.408,150.400 211.623 C 163.368 214.441,180.672 213.802,194.200 210.004 C 195.080 209.757,196.340 209.406,197.000 209.224 C 198.703 208.753,199.420 208.493,202.500 207.231 C 202.995 207.028,204.210 206.539,205.200 206.145 C 210.898 203.873,222.007 197.426,221.326 196.785 C 220.904 196.387,215.879 195.022,211.809 194.200 C 203.066 192.434,190.525 191.934,182.117 193.015 M35.600 304.383 C 35.050 304.559,33.790 304.944,32.800 305.238 C 14.663 310.627,8.369 334.254,21.264 348.541 C 28.441 356.493,34.216 358.400,51.124 358.400 L 61.600 358.400 61.600 348.223 L 61.600 338.046 47.100 337.923 C 34.195 337.814,32.459 337.723,31.321 337.100 C 25.678 334.015,26.960 325.588,33.257 324.372 C 35.534 323.932,150.466 323.932,152.743 324.372 C 158.928 325.566,160.502 333.276,155.281 336.800 L 153.800 337.800 135.700 337.919 L 117.600 338.038 117.600 348.219 L 117.600 358.400 192.954 358.400 L 268.308 358.400 266.617 354.300 C 265.687 352.045,264.800 349.660,264.645 349.000 C 264.491 348.340,264.182 347.080,263.960 346.200 C 261.324 335.759,261.327 323.438,263.967 314.300 C 264.205 313.475,264.562 312.215,264.759 311.500 C 264.957 310.785,265.587 308.941,266.159 307.402 C 266.732 305.863,267.200 304.468,267.200 304.302 C 267.200 303.896,36.871 303.976,35.600 304.383 " stroke="none" fill="#ebe6cb" fill-rule="evenodd"></path><path id="path1" d="M304.080 27.280 C 303.571 27.789,303.339 109.255,303.843 110.567 C 304.228 111.571,329.219 111.519,330.395 110.511 C 331.203 109.820,331.726 31.932,330.950 28.050 L 330.700 26.800 317.630 26.800 C 307.998 26.800,304.434 26.926,304.080 27.280 M175.905 28.283 C 176.402 28.379,177.122 28.375,177.505 28.275 C 177.887 28.175,177.480 28.096,176.600 28.101 C 175.720 28.105,175.407 28.187,175.905 28.283 M182.500 29.076 C 182.885 29.176,183.515 29.176,183.900 29.076 C 184.285 28.975,183.970 28.893,183.200 28.893 C 182.430 28.893,182.115 28.975,182.500 29.076 M209.228 37.431 C 209.199 38.289,202.962 44.616,199.600 47.197 C 198.610 47.957,197.710 48.674,197.600 48.790 C 197.490 48.906,196.905 49.256,196.300 49.568 C 195.695 49.880,195.200 50.285,195.200 50.468 C 195.200 50.650,194.964 50.800,194.675 50.800 C 194.387 50.800,193.802 51.122,193.375 51.516 C 192.599 52.233,184.681 56.253,180.242 58.183 C 175.856 60.091,171.118 63.825,168.800 67.200 C 168.271 67.970,167.740 68.690,167.619 68.800 C 166.871 69.482,164.219 75.142,163.776 77.000 C 163.205 79.397,163.644 84.933,164.444 85.427 C 164.640 85.548,164.800 85.919,164.800 86.252 C 164.800 89.334,175.868 98.400,179.632 98.400 C 180.028 98.400,180.464 98.580,180.600 98.800 C 180.736 99.020,181.276 99.200,181.800 99.200 C 182.324 99.200,182.864 99.380,183.000 99.600 C 183.136 99.820,183.856 100.000,184.600 100.000 C 185.344 100.000,186.064 100.180,186.200 100.400 C 186.336 100.620,186.966 100.800,187.600 100.800 C 188.234 100.800,188.864 100.980,189.000 101.200 C 189.136 101.420,189.560 101.600,189.941 101.600 C 190.957 101.600,197.112 104.773,199.510 106.534 C 203.913 109.766,207.521 115.551,207.628 119.550 C 207.652 120.460,207.697 120.496,207.963 119.817 C 208.347 118.834,208.120 124.299,207.608 128.354 C 206.965 133.451,205.875 138.124,205.130 138.980 C 204.949 139.189,204.800 139.774,204.800 140.280 C 204.800 140.786,204.620 141.200,204.400 141.200 C 204.180 141.200,204.000 141.436,204.000 141.725 C 204.000 142.014,203.640 142.995,203.200 143.906 C 202.760 144.816,202.400 145.840,202.400 146.181 C 202.400 146.521,202.220 146.800,202.000 146.800 C 201.780 146.800,201.600 147.239,201.600 147.776 C 201.600 148.313,201.420 148.864,201.200 149.000 C 200.980 149.136,200.800 149.676,200.800 150.200 C 200.800 150.724,200.620 151.264,200.400 151.400 C 200.180 151.536,200.000 152.231,200.000 152.944 C 200.000 153.657,199.838 154.411,199.641 154.620 C 198.815 155.495,198.064 165.424,198.770 166.130 C 199.007 166.367,199.200 166.884,199.200 167.280 C 199.200 167.676,199.380 168.000,199.600 168.000 C 199.820 168.000,200.000 168.283,200.000 168.629 C 200.000 170.266,206.133 175.260,207.276 174.553 C 207.529 174.397,207.613 174.455,207.469 174.688 C 207.002 175.444,211.614 176.068,214.036 175.576 C 221.788 174.001,225.415 172.407,233.391 167.069 C 239.005 163.312,244.344 160.585,249.493 158.847 C 253.833 157.382,253.589 157.414,253.642 158.300 C 253.665 158.685,253.890 158.370,254.142 157.600 C 254.394 156.830,254.703 156.020,254.829 155.800 C 254.955 155.580,255.302 154.590,255.599 153.600 C 255.896 152.610,256.288 151.629,256.470 151.420 C 256.651 151.211,256.800 150.637,256.800 150.144 C 256.800 149.651,256.980 149.136,257.200 149.000 C 257.420 148.864,257.600 148.324,257.600 147.800 C 257.600 147.276,257.760 146.748,257.956 146.627 C 258.151 146.506,258.413 145.821,258.537 145.104 C 258.661 144.387,258.873 143.170,259.008 142.400 C 259.144 141.630,259.412 140.640,259.605 140.200 C 259.797 139.760,260.058 138.590,260.184 137.600 C 260.311 136.610,260.625 134.360,260.883 132.600 C 261.487 128.484,261.491 113.155,260.890 109.000 C 260.259 104.645,259.735 101.708,259.246 99.800 C 258.501 96.888,257.954 94.614,257.729 93.495 C 257.607 92.887,257.349 92.292,257.154 92.171 C 256.959 92.051,256.800 91.601,256.800 91.171 C 256.800 90.741,256.641 90.077,256.447 89.695 C 256.032 88.879,255.214 86.937,254.806 85.800 C 253.250 81.460,244.758 66.350,243.228 65.200 C 243.081 65.090,242.526 64.370,241.994 63.600 C 240.267 61.100,232.892 53.362,229.200 50.176 C 226.702 48.020,220.098 43.200,219.643 43.200 C 219.399 43.200,219.200 43.020,219.200 42.800 C 219.200 42.580,218.930 42.400,218.600 42.400 C 218.270 42.400,218.000 42.241,218.000 42.047 C 218.000 41.852,217.685 41.593,217.300 41.471 C 216.574 41.241,214.350 39.966,214.000 39.579 C 213.683 39.229,210.642 37.809,210.200 37.804 C 209.980 37.802,209.678 37.530,209.528 37.200 C 209.324 36.750,209.249 36.807,209.228 37.431 M83.848 83.300 C 83.702 83.874,83.231 85.229,81.520 90.000 C 80.326 93.325,79.954 94.551,79.152 97.800 C 74.288 117.485,75.636 136.876,83.181 155.768 C 85.106 160.589,89.456 168.924,90.900 170.558 C 91.285 170.994,91.600 171.587,91.600 171.875 C 91.600 172.164,91.750 172.400,91.932 172.400 C 92.115 172.400,92.520 172.892,92.832 173.494 C 93.510 174.800,93.511 174.802,97.388 179.516 C 100.708 183.552,107.148 190.124,109.518 191.894 C 110.333 192.502,111.195 193.180,111.434 193.400 C 111.672 193.620,113.004 194.610,114.392 195.600 C 115.780 196.590,117.745 198.016,118.758 198.769 C 119.771 199.522,120.353 199.837,120.051 199.469 C 119.678 199.015,119.629 198.639,119.897 198.300 C 120.115 198.025,120.415 197.260,120.564 196.600 C 120.714 195.940,121.018 194.680,121.240 193.800 C 121.462 192.920,121.844 191.390,122.090 190.400 C 122.710 187.895,122.665 174.075,122.025 170.600 C 121.341 166.882,121.021 156.019,121.579 155.461 C 121.811 155.229,122.000 154.534,122.000 153.915 C 122.000 153.296,122.158 152.477,122.351 152.095 C 122.544 151.713,122.916 150.680,123.177 149.800 C 123.439 148.920,123.804 147.840,123.989 147.400 C 125.099 144.761,125.581 143.093,125.346 142.712 C 125.197 142.472,125.246 142.381,125.453 142.509 C 125.661 142.637,126.338 141.180,126.959 139.271 C 127.579 137.362,128.223 135.440,128.388 135.000 C 129.204 132.832,129.600 131.228,129.600 130.095 C 129.600 129.409,129.780 128.736,130.000 128.600 C 130.501 128.290,130.529 122.633,130.033 121.695 C 129.832 121.313,129.458 120.436,129.204 119.746 C 128.686 118.342,126.333 115.600,125.646 115.600 C 125.401 115.600,125.200 115.464,125.200 115.298 C 125.200 115.131,124.615 114.756,123.900 114.464 C 121.150 113.341,120.578 113.096,119.905 112.753 C 119.523 112.559,118.794 112.400,118.285 112.400 C 117.776 112.400,117.189 112.238,116.980 112.041 C 116.771 111.844,115.880 111.585,115.000 111.467 C 114.120 111.349,112.500 111.052,111.400 110.808 C 110.300 110.564,108.860 110.270,108.200 110.155 C 107.540 110.040,106.640 109.798,106.200 109.618 C 105.760 109.438,104.590 109.054,103.600 108.764 C 97.421 106.953,90.631 100.864,87.250 94.100 C 85.650 90.900,85.200 89.833,85.200 89.242 C 85.200 88.867,85.029 88.389,84.821 88.180 C 84.613 87.971,84.388 86.676,84.321 85.302 C 84.201 82.817,84.090 82.347,83.848 83.300 M234.392 186.300 L 230.600 190.200 234.500 186.408 C 238.122 182.886,238.582 182.400,238.292 182.400 C 238.233 182.400,236.478 184.155,234.392 186.300 M303.953 248.300 C 303.659 249.055,303.615 253.505,303.810 262.500 L 304.096 275.600 352.048 275.600 L 400.000 275.600 400.000 263.433 L 400.000 251.265 398.431 249.633 C 397.391 248.550,396.515 248.000,395.831 248.000 C 395.264 248.000,394.800 247.820,394.800 247.600 C 394.800 247.336,379.463 247.200,349.590 247.200 L 304.380 247.200 303.953 248.300 " stroke="none" fill="#469969" fill-rule="evenodd"></path><path id="path2" d="M174.009 30.100 C 170.807 35.905,166.786 40.879,162.784 43.985 C 161.803 44.747,160.940 45.512,160.867 45.685 C 160.793 45.858,160.538 46.000,160.298 46.000 C 160.059 46.000,159.548 46.285,159.163 46.633 C 158.332 47.385,156.086 48.726,155.100 49.058 C 154.715 49.187,154.400 49.452,154.400 49.647 C 154.400 49.841,154.135 50.000,153.812 50.000 C 153.489 50.000,152.634 50.326,151.912 50.724 C 150.705 51.390,146.337 52.939,145.400 53.033 C 145.180 53.055,144.460 53.228,143.800 53.418 C 143.140 53.607,142.274 53.713,141.876 53.652 C 141.478 53.591,140.938 53.713,140.676 53.923 C 140.414 54.133,139.570 54.409,138.800 54.536 C 138.030 54.663,136.410 54.966,135.200 55.210 C 133.990 55.453,132.100 55.747,131.000 55.863 C 129.900 55.979,128.829 56.237,128.620 56.437 C 128.411 56.637,127.207 56.800,125.944 56.800 C 124.681 56.800,123.536 56.980,123.400 57.200 C 123.264 57.420,121.644 57.600,119.800 57.600 C 117.956 57.600,116.336 57.780,116.200 58.000 C 116.049 58.245,112.877 58.400,108.020 58.400 L 100.087 58.400 97.064 62.159 C 87.491 74.061,82.213 85.307,84.851 88.180 C 85.043 88.389,85.200 88.867,85.200 89.242 C 85.200 89.833,85.650 90.900,87.250 94.100 C 90.631 100.864,97.421 106.953,103.600 108.764 C 104.590 109.054,105.760 109.438,106.200 109.618 C 106.640 109.798,107.540 110.040,108.200 110.155 C 108.860 110.270,110.300 110.564,111.400 110.808 C 112.500 111.052,114.120 111.349,115.000 111.467 C 115.880 111.585,116.771 111.844,116.980 112.041 C 117.189 112.238,117.776 112.400,118.285 112.400 C 118.794 112.400,119.523 112.559,119.905 112.753 C 120.578 113.096,121.150 113.341,123.900 114.464 C 124.615 114.756,125.200 115.131,125.200 115.298 C 125.200 115.464,125.401 115.600,125.646 115.600 C 126.333 115.600,128.686 118.342,129.204 119.746 C 129.458 120.436,129.832 121.313,130.033 121.695 C 130.529 122.633,130.501 128.290,130.000 128.600 C 129.780 128.736,129.600 129.409,129.600 130.095 C 129.600 131.217,129.249 132.651,128.400 135.000 C 128.241 135.440,127.885 136.520,127.609 137.400 C 127.009 139.311,124.502 146.268,124.004 147.400 C 123.811 147.840,123.439 148.920,123.177 149.800 C 122.916 150.680,122.544 151.713,122.351 152.095 C 122.158 152.477,122.000 153.296,122.000 153.915 C 122.000 154.534,121.811 155.229,121.579 155.461 C 121.021 156.019,121.341 166.882,122.025 170.600 C 122.665 174.075,122.710 187.895,122.090 190.400 C 121.844 191.390,121.462 192.920,121.240 193.800 C 121.018 194.680,120.714 195.940,120.564 196.600 C 120.415 197.260,120.121 198.017,119.912 198.282 C 119.026 199.404,125.242 202.989,135.400 207.214 C 135.840 207.397,136.920 207.761,137.800 208.023 C 138.680 208.284,139.713 208.656,140.095 208.849 C 140.477 209.042,141.141 209.200,141.571 209.200 C 142.001 209.200,142.464 209.380,142.600 209.600 C 143.181 210.540,147.399 208.230,149.200 205.985 C 149.605 205.480,155.577 201.600,155.949 201.600 C 156.160 201.600,156.393 201.455,156.467 201.278 C 156.684 200.753,166.333 196.221,167.267 196.205 C 167.413 196.202,167.668 196.065,167.833 195.900 C 167.998 195.735,168.543 195.600,169.043 195.600 C 169.543 195.600,170.064 195.420,170.200 195.200 C 170.336 194.980,170.966 194.800,171.600 194.800 C 172.234 194.800,172.864 194.620,173.000 194.400 C 173.136 194.180,174.011 194.000,174.944 194.000 C 175.877 194.000,176.811 193.835,177.020 193.634 C 178.341 192.360,206.576 192.326,209.400 193.595 C 209.840 193.793,210.920 194.045,211.800 194.155 C 214.372 194.476,216.142 194.830,217.000 195.194 C 220.465 196.664,223.171 196.529,224.800 194.807 C 224.910 194.691,225.720 194.068,226.600 193.422 C 229.562 191.251,240.229 180.233,243.080 176.400 C 248.429 169.209,254.797 157.600,253.393 157.600 C 250.770 157.600,239.731 162.826,233.391 167.069 C 225.398 172.418,221.649 174.062,213.975 175.583 C 209.008 176.567,200.000 172.085,200.000 168.629 C 200.000 168.283,199.820 168.000,199.600 168.000 C 199.380 168.000,199.200 167.676,199.200 167.280 C 199.200 166.884,199.007 166.367,198.770 166.130 C 198.064 165.424,198.815 155.495,199.641 154.620 C 199.838 154.411,200.000 153.657,200.000 152.944 C 200.000 152.231,200.180 151.536,200.400 151.400 C 200.620 151.264,200.800 150.724,200.800 150.200 C 200.800 149.676,200.980 149.136,201.200 149.000 C 201.420 148.864,201.600 148.313,201.600 147.776 C 201.600 147.239,201.780 146.800,202.000 146.800 C 202.220 146.800,202.400 146.521,202.400 146.181 C 202.400 145.840,202.760 144.816,203.200 143.906 C 203.640 142.995,204.000 142.014,204.000 141.725 C 204.000 141.436,204.180 141.200,204.400 141.200 C 204.620 141.200,204.800 140.786,204.800 140.280 C 204.800 139.774,204.949 139.189,205.130 138.980 C 206.164 137.792,207.992 128.205,208.046 123.689 C 208.129 116.805,205.037 110.591,199.510 106.534 C 197.112 104.773,190.957 101.600,189.941 101.600 C 189.560 101.600,189.136 101.420,189.000 101.200 C 188.864 100.980,188.234 100.800,187.600 100.800 C 186.966 100.800,186.336 100.620,186.200 100.400 C 186.064 100.180,185.344 100.000,184.600 100.000 C 183.856 100.000,183.136 99.820,183.000 99.600 C 182.864 99.380,182.324 99.200,181.800 99.200 C 181.276 99.200,180.736 99.020,180.600 98.800 C 180.464 98.580,180.028 98.400,179.632 98.400 C 175.868 98.400,164.800 89.334,164.800 86.252 C 164.800 85.919,164.640 85.548,164.444 85.427 C 163.644 84.933,163.205 79.397,163.776 77.000 C 164.211 75.173,166.884 69.471,167.619 68.800 C 167.740 68.690,168.271 67.970,168.800 67.200 C 171.118 63.825,175.856 60.091,180.242 58.183 C 184.681 56.253,192.599 52.233,193.375 51.516 C 193.802 51.122,194.387 50.800,194.675 50.800 C 194.964 50.800,195.200 50.650,195.200 50.468 C 195.200 50.285,195.695 49.880,196.300 49.568 C 196.905 49.256,197.490 48.906,197.600 48.790 C 197.710 48.674,198.610 47.957,199.600 47.197 C 202.568 44.919,209.200 38.308,209.200 37.628 C 209.200 37.280,208.705 36.780,208.100 36.517 C 200.051 33.021,192.731 30.715,186.200 29.621 C 184.660 29.363,182.531 28.982,181.469 28.776 C 176.884 27.883,175.053 28.208,174.009 30.100 " stroke="none" fill="#2caccb" fill-rule="evenodd"></path><path id="path3" d="M31.800 0.298 C 30.920 0.383,30.029 0.621,29.820 0.827 C 29.611 1.032,28.936 1.200,28.320 1.200 C 27.704 1.200,27.200 1.380,27.200 1.600 C 27.200 1.820,26.840 2.000,26.400 2.000 C 25.960 2.000,25.600 2.180,25.600 2.400 C 25.600 2.620,25.060 2.800,24.400 2.800 C 23.740 2.800,23.200 2.980,23.200 3.200 C 23.200 3.420,22.840 3.600,22.400 3.600 C 21.960 3.600,21.600 3.780,21.600 4.000 C 21.600 4.220,21.280 4.400,20.888 4.400 C 20.497 4.400,19.917 4.760,19.600 5.200 C 19.283 5.640,18.769 6.000,18.459 6.000 C 18.148 6.000,17.603 6.333,17.247 6.741 C 16.891 7.148,16.054 7.763,15.386 8.107 C 13.837 8.904,8.921 13.806,8.123 15.348 C 7.789 15.995,7.174 16.891,6.757 17.338 C 6.341 17.785,6.000 18.347,6.000 18.587 C 6.000 18.827,5.640 19.283,5.200 19.600 C 4.760 19.917,4.400 20.497,4.400 20.888 C 4.400 21.280,4.220 21.600,4.000 21.600 C 3.780 21.600,3.600 21.960,3.600 22.400 C 3.600 22.840,3.420 23.200,3.200 23.200 C 2.980 23.200,2.800 23.639,2.800 24.176 C 2.800 24.713,2.620 25.264,2.400 25.400 C 2.180 25.536,2.000 25.997,2.000 26.424 C 2.000 26.851,1.820 27.200,1.600 27.200 C 1.380 27.200,1.200 27.614,1.200 28.120 C 1.200 28.626,0.975 29.265,0.700 29.540 C -0.036 30.276,-0.036 341.255,0.700 341.500 C 0.975 341.592,1.200 342.181,1.200 342.810 C 1.200 343.438,1.380 344.064,1.600 344.200 C 1.820 344.336,2.000 344.887,2.000 345.424 C 2.000 345.961,2.180 346.400,2.400 346.400 C 2.620 346.400,2.800 346.749,2.800 347.176 C 2.800 347.603,2.980 348.064,3.200 348.200 C 3.420 348.336,3.600 348.763,3.600 349.148 C 3.600 349.534,3.960 350.236,4.400 350.708 C 4.840 351.180,5.200 351.844,5.200 352.183 C 5.200 352.522,5.335 352.805,5.500 352.811 C 5.665 352.817,6.241 353.537,6.780 354.411 C 7.320 355.285,7.905 356.000,8.080 356.000 C 8.256 356.000,8.400 356.260,8.400 356.577 C 8.400 356.895,8.800 357.435,9.289 357.777 C 9.778 358.120,10.065 358.400,9.928 358.400 C 9.790 358.400,10.890 359.570,12.371 361.000 C 13.852 362.430,15.186 363.600,15.336 363.600 C 15.485 363.600,16.172 364.140,16.863 364.800 C 17.554 365.460,18.362 366.000,18.659 366.000 C 18.957 366.000,19.200 366.180,19.200 366.400 C 19.200 366.620,19.478 366.800,19.817 366.800 C 20.156 366.800,20.820 367.160,21.292 367.600 C 22.039 368.296,22.963 368.617,23.309 368.300 C 23.370 368.245,23.853 368.605,24.385 369.100 C 24.916 369.595,25.767 370.000,26.275 370.000 C 26.784 370.000,27.200 370.180,27.200 370.400 C 27.200 370.620,27.729 370.800,28.376 370.800 C 29.023 370.800,29.664 370.980,29.800 371.200 C 29.936 371.420,30.577 371.600,31.224 371.600 C 31.871 371.600,32.400 371.780,32.400 372.000 C 32.400 372.220,33.270 372.400,34.333 372.400 C 35.397 372.400,36.402 372.535,36.567 372.700 C 36.984 373.117,36.345 373.095,49.400 373.150 L 61.200 373.200 61.200 384.400 C 61.200 391.600,61.343 395.600,61.600 395.600 C 61.820 395.600,62.000 395.960,62.000 396.400 C 62.000 396.840,62.180 397.200,62.400 397.200 C 62.620 397.200,62.800 397.430,62.800 397.711 C 62.800 399.775,72.716 400.943,74.561 399.096 C 74.948 398.709,75.415 398.485,75.598 398.599 C 75.782 398.712,75.992 398.637,76.066 398.432 C 76.140 398.228,76.463 398.002,76.784 397.930 C 77.106 397.859,77.725 397.485,78.160 397.100 C 78.884 396.460,79.673 396.214,80.530 396.363 C 80.711 396.394,80.745 396.235,80.606 396.010 C 80.392 395.663,80.755 395.544,81.814 395.614 C 81.932 395.622,82.307 395.350,82.647 395.011 C 82.986 394.671,83.430 394.495,83.632 394.620 C 83.835 394.745,84.000 394.692,84.000 394.503 C 84.000 394.088,87.380 392.400,88.211 392.400 C 88.535 392.400,88.800 392.220,88.800 392.000 C 88.800 391.780,89.160 391.600,89.600 391.600 C 90.040 391.600,90.400 391.780,90.400 392.000 C 90.400 392.220,90.724 392.400,91.120 392.400 C 92.014 392.400,93.993 393.294,93.997 393.700 C 93.999 393.865,94.360 394.000,94.800 394.000 C 95.240 394.000,95.600 394.180,95.600 394.400 C 95.600 394.620,95.960 394.800,96.400 394.800 C 96.840 394.800,97.200 394.980,97.200 395.200 C 97.200 395.420,97.560 395.600,98.000 395.600 C 98.440 395.600,98.800 395.780,98.800 396.000 C 98.800 396.220,99.160 396.400,99.600 396.400 C 100.040 396.400,100.400 396.580,100.400 396.800 C 100.400 397.020,100.760 397.200,101.200 397.200 C 101.640 397.200,102.000 397.380,102.000 397.600 C 102.000 397.820,102.360 398.000,102.800 398.000 C 103.240 398.000,103.600 398.180,103.600 398.400 C 103.600 398.620,103.945 398.800,104.367 398.800 C 104.788 398.800,105.208 399.025,105.300 399.300 C 105.420 399.662,106.746 399.800,110.087 399.800 L 114.707 399.800 116.154 398.222 C 117.294 396.978,117.600 396.316,117.600 395.098 C 117.600 394.170,117.760 393.651,118.000 393.800 C 118.263 393.962,118.400 390.471,118.400 383.624 L 118.400 373.200 202.176 373.200 C 257.596 373.200,286.036 373.065,286.200 372.800 C 286.336 372.580,287.067 372.400,287.824 372.400 C 288.581 372.400,289.200 372.220,289.200 372.000 C 289.200 371.780,289.391 371.600,289.624 371.600 C 289.857 371.600,289.941 371.772,289.810 371.983 C 289.680 372.194,290.062 372.113,290.658 371.804 C 291.255 371.494,291.918 371.350,292.133 371.482 C 292.350 371.616,292.396 371.518,292.238 371.262 C 292.069 370.988,292.207 370.800,292.576 370.800 C 292.919 370.800,293.200 370.620,293.200 370.400 C 293.200 370.180,293.520 370.000,293.912 370.000 C 294.303 370.000,294.880 369.644,295.194 369.209 C 295.613 368.627,295.846 368.548,296.076 368.909 C 296.291 369.248,296.390 369.177,296.394 368.676 C 296.397 368.278,296.584 368.067,296.810 368.206 C 297.035 368.345,297.194 368.311,297.163 368.130 C 297.016 367.288,297.251 366.800,297.800 366.800 C 298.130 366.800,298.400 366.620,298.400 366.400 C 298.400 366.180,298.715 365.986,299.100 365.968 C 299.485 365.951,299.585 365.849,299.322 365.742 C 299.015 365.618,299.266 365.105,300.022 364.315 C 300.670 363.636,301.200 362.838,301.200 362.541 C 301.200 362.243,301.380 362.000,301.600 362.000 C 301.820 362.000,302.000 361.640,302.000 361.200 C 302.000 360.760,302.180 360.400,302.400 360.400 C 302.620 360.400,302.779 360.265,302.753 360.100 C 302.596 359.109,302.860 357.990,303.200 358.200 C 303.433 358.344,303.600 357.945,303.600 357.247 C 303.600 356.587,303.780 355.936,304.000 355.800 C 304.220 355.664,304.397 355.338,304.394 355.076 C 304.390 354.790,304.233 354.839,304.000 355.200 C 303.686 355.685,303.611 355.628,303.606 354.900 C 303.603 354.405,303.770 354.000,303.977 354.000 C 304.202 354.000,304.367 349.521,304.387 342.820 L 304.422 331.640 303.111 331.402 C 302.390 331.271,299.100 331.217,295.800 331.282 L 289.800 331.400 289.600 342.832 L 289.400 354.264 288.279 355.733 C 285.874 358.885,294.605 358.588,200.905 358.704 L 117.211 358.807 117.105 345.104 L 117.000 331.400 89.705 331.297 L 62.411 331.194 62.305 344.897 L 62.200 358.600 50.400 358.718 C 42.509 358.797,38.070 358.687,37.000 358.385 C 36.120 358.137,34.680 357.738,33.800 357.497 C 32.920 357.257,32.029 356.912,31.820 356.730 C 31.611 356.549,31.216 356.400,30.941 356.400 C 28.272 356.400,19.543 348.437,17.131 343.800 C 9.466 329.069,15.612 311.295,30.400 305.428 C 35.943 303.229,19.526 303.415,217.900 303.300 L 400.000 303.195 400.000 289.397 L 400.000 275.600 351.835 275.600 L 303.670 275.600 303.411 277.300 C 302.429 283.729,298.809 287.806,292.617 289.453 C 290.950 289.896,268.367 289.991,162.600 289.997 L 34.600 290.005 34.400 145.136 C 34.267 49.019,34.065 0.246,33.800 0.204 C 33.580 0.170,32.680 0.212,31.800 0.298 M371.600 27.189 C 371.600 27.431,370.452 27.600,368.808 27.600 C 366.243 27.600,365.998 27.673,365.798 28.500 C 365.678 28.995,365.630 47.580,365.690 69.800 L 365.800 110.200 369.100 110.316 C 370.915 110.380,372.400 110.605,372.400 110.816 C 372.400 111.348,394.671 111.332,395.000 110.800 C 395.136 110.580,395.611 110.400,396.055 110.400 C 396.499 110.400,397.569 109.665,398.431 108.767 L 400.000 107.135 400.000 69.128 C 400.000 26.698,400.175 29.282,397.190 27.689 C 395.405 26.736,371.600 26.271,371.600 27.189 M349.200 166.159 C 344.954 167.086,341.187 169.869,339.774 173.124 C 339.421 173.936,338.968 174.913,338.766 175.295 C 337.008 178.628,339.118 186.026,342.767 189.323 C 344.196 190.613,345.030 191.084,348.119 192.344 C 351.823 193.854,358.044 192.102,361.431 188.594 C 370.431 179.276,361.783 163.414,349.200 166.159 " stroke="none" fill="#cd4030" fill-rule="evenodd"></path><path id="path4" d="M34.400 144.776 C 34.400 224.403,34.535 289.608,34.700 289.676 C 34.865 289.744,93.050 289.710,164.000 289.600 L 293.000 289.400 295.311 288.317 C 297.792 287.154,300.876 284.253,301.770 282.240 C 303.121 279.198,303.200 278.163,303.200 263.417 C 303.200 250.967,303.295 248.427,303.787 247.776 C 304.837 246.388,304.666 222.006,303.600 221.093 C 302.810 220.416,302.800 219.913,302.800 179.437 C 302.800 138.222,302.825 137.200,303.843 137.200 C 304.876 137.200,304.643 111.843,303.600 110.800 C 302.340 109.540,302.340 28.386,303.600 27.307 C 304.500 26.536,304.869 11.137,304.000 10.600 C 303.780 10.464,303.600 9.996,303.600 9.560 C 303.600 7.714,298.656 1.200,297.254 1.200 C 297.055 1.200,296.376 0.931,295.746 0.602 C 294.736 0.076,279.125 0.005,164.500 0.002 L 34.400 0.000 34.400 144.776 M180.800 27.924 C 188.978 28.972,198.166 31.321,203.900 33.831 C 204.615 34.144,205.875 34.685,206.700 35.034 C 207.525 35.382,208.560 35.864,209.000 36.104 C 209.440 36.344,210.700 37.021,211.800 37.608 C 215.076 39.358,216.900 40.430,218.670 41.648 C 219.591 42.282,220.537 42.800,220.772 42.800 C 221.007 42.800,221.200 42.941,221.200 43.114 C 221.200 43.286,221.695 43.724,222.300 44.087 C 223.480 44.794,223.647 44.918,227.600 48.006 C 231.281 50.881,238.057 57.610,241.080 61.389 C 242.491 63.155,243.880 64.887,244.166 65.238 C 245.826 67.276,252.400 77.953,252.400 78.612 C 252.400 78.672,253.096 80.223,253.947 82.060 C 254.798 83.897,255.735 86.120,256.029 87.000 C 256.323 87.880,256.707 88.771,256.882 88.980 C 257.057 89.189,257.200 89.763,257.200 90.256 C 257.200 90.749,257.380 91.264,257.600 91.400 C 257.820 91.536,258.000 92.076,258.000 92.600 C 258.000 93.124,258.159 93.651,258.354 93.771 C 258.549 93.892,258.807 94.487,258.929 95.095 C 259.051 95.703,259.353 97.010,259.600 98.000 C 261.858 107.039,262.749 117.457,262.070 126.899 C 261.559 134.011,261.042 137.412,259.593 143.200 C 259.345 144.190,259.045 145.587,258.927 146.304 C 258.808 147.021,258.551 147.706,258.356 147.827 C 258.160 147.948,258.000 148.476,258.000 149.000 C 258.000 149.524,257.820 150.064,257.600 150.200 C 257.380 150.336,257.200 150.799,257.200 151.229 C 257.200 151.659,257.020 152.368,256.800 152.805 C 256.580 153.242,256.220 153.958,256.000 154.395 C 255.780 154.832,255.600 155.374,255.600 155.599 C 255.600 156.000,255.285 156.734,252.851 162.000 C 250.895 166.232,245.555 175.092,244.413 176.000 C 244.275 176.110,243.722 176.828,243.185 177.596 C 241.618 179.837,240.500 181.066,235.000 186.594 C 229.651 191.971,228.410 193.102,226.000 194.802 C 225.230 195.345,224.240 196.098,223.800 196.477 C 220.158 199.610,204.433 208.000,202.204 208.000 C 201.872 208.000,201.600 208.180,201.600 208.400 C 201.600 208.620,201.161 208.800,200.624 208.800 C 200.087 208.800,199.536 208.980,199.400 209.200 C 199.264 209.420,198.724 209.600,198.200 209.600 C 197.676 209.600,197.136 209.780,197.000 210.000 C 196.864 210.220,196.234 210.400,195.600 210.400 C 194.966 210.400,194.348 210.560,194.227 210.756 C 194.106 210.951,193.421 211.212,192.704 211.334 C 191.987 211.456,190.500 211.755,189.400 211.999 C 177.598 214.616,163.433 214.916,152.400 212.784 C 151.190 212.551,149.524 212.259,148.697 212.137 C 147.871 212.015,147.095 211.755,146.974 211.558 C 146.852 211.361,146.144 211.200,145.400 211.200 C 144.656 211.200,143.936 211.020,143.800 210.800 C 143.664 210.580,143.034 210.400,142.400 210.400 C 141.766 210.400,141.136 210.220,141.000 210.000 C 140.864 209.780,140.313 209.600,139.776 209.600 C 139.239 209.600,138.800 209.420,138.800 209.200 C 138.800 208.980,138.361 208.800,137.824 208.800 C 137.287 208.800,136.736 208.620,136.600 208.400 C 136.464 208.180,136.020 208.000,135.614 208.000 C 135.208 208.000,134.184 207.656,133.338 207.237 C 131.499 206.324,128.071 204.800,127.856 204.800 C 126.966 204.800,114.348 196.847,112.186 194.924 C 111.738 194.526,110.568 193.576,109.586 192.813 C 106.605 190.497,100.893 184.820,97.502 180.800 C 89.273 171.047,82.598 158.493,79.211 146.400 C 78.934 145.410,78.567 144.150,78.396 143.600 C 78.225 143.050,77.892 141.610,77.656 140.400 C 77.420 139.190,77.117 137.660,76.984 137.000 C 75.771 131.018,75.388 114.745,76.315 108.600 C 77.075 103.564,77.987 99.020,78.803 96.200 C 79.057 95.320,79.362 94.103,79.479 93.495 C 79.596 92.887,79.851 92.292,80.046 92.171 C 80.241 92.051,80.400 91.601,80.400 91.171 C 80.400 90.741,80.569 90.077,80.775 89.695 C 80.981 89.313,81.633 87.650,82.225 86.000 C 83.575 82.236,86.929 75.349,88.900 72.296 C 89.725 71.019,90.400 69.799,90.400 69.587 C 90.400 69.374,90.541 69.200,90.714 69.200 C 90.886 69.200,91.335 68.680,91.710 68.045 C 94.504 63.315,104.832 51.957,109.763 48.193 C 110.622 47.537,111.792 46.624,112.363 46.164 C 114.202 44.682,120.756 40.400,121.185 40.400 C 121.413 40.400,121.601 40.265,121.603 40.100 C 121.605 39.935,122.010 39.604,122.503 39.365 C 122.996 39.126,125.290 37.976,127.600 36.810 C 132.211 34.482,132.392 34.404,137.600 32.455 C 140.375 31.416,146.266 29.791,149.400 29.199 C 150.720 28.949,152.451 28.577,153.246 28.373 C 154.042 28.168,155.572 27.982,156.646 27.960 C 157.721 27.938,159.050 27.771,159.600 27.589 C 160.880 27.166,176.852 27.418,180.800 27.924 M267.807 305.200 C 265.726 310.622,265.354 311.761,264.348 315.800 C 263.398 319.615,263.117 321.685,262.933 326.235 L 262.738 331.069 295.269 331.343 C 342.908 331.743,396.486 331.663,396.195 331.191 C 396.062 330.976,396.332 330.800,396.795 330.800 C 397.258 330.800,398.123 330.313,398.718 329.719 L 399.800 328.638 399.921 316.121 L 400.042 303.605 334.270 303.502 L 268.498 303.400 267.807 305.200 " stroke="none" fill="#f3c21c" fill-rule="evenodd"></path><path id="path5" d="M365.632 27.700 C 365.649 28.195,365.754 28.375,365.865 28.100 C 365.999 27.768,366.994 27.600,368.833 27.600 C 370.411 27.600,371.600 27.428,371.600 27.200 C 371.600 26.969,370.333 26.800,368.600 26.800 C 365.746 26.800,365.602 26.844,365.632 27.700 M303.043 27.833 C 302.447 29.385,302.782 109.823,303.387 110.624 C 303.710 111.051,303.980 111.211,303.987 110.980 C 303.994 110.749,303.817 110.377,303.593 110.153 C 303.320 109.880,303.221 96.093,303.293 68.473 C 303.352 45.773,303.374 27.200,303.343 27.200 C 303.311 27.200,303.176 27.485,303.043 27.833 M365.599 110.700 C 365.600 111.061,366.547 111.200,369.000 111.200 C 373.421 111.200,373.420 110.498,368.999 110.329 C 366.476 110.233,365.598 110.329,365.599 110.700 M348.200 166.010 C 347.666 166.247,347.998 166.286,349.200 166.127 C 350.190 165.996,351.075 165.824,351.167 165.744 C 351.514 165.443,348.964 165.672,348.200 166.010 M352.433 165.744 C 352.525 165.824,353.410 165.996,354.400 166.127 C 355.602 166.286,355.934 166.247,355.400 166.010 C 354.636 165.672,352.086 165.443,352.433 165.744 M342.555 168.990 C 341.871 169.530,341.004 170.473,340.630 171.086 C 339.951 172.197,339.952 172.196,341.022 171.000 C 341.612 170.340,342.569 169.401,343.147 168.914 C 344.581 167.709,344.104 167.770,342.555 168.990 M362.693 171.597 C 363.268 172.476,363.823 173.111,363.925 173.008 C 364.107 172.826,362.113 170.000,361.803 170.000 C 361.717 170.000,362.118 170.719,362.693 171.597 M364.994 179.419 C 364.991 181.281,365.113 182.488,365.266 182.102 C 365.622 181.201,365.626 177.607,365.272 176.717 C 365.122 176.342,364.997 177.557,364.994 179.419 M338.128 179.200 C 338.128 180.630,338.201 181.215,338.289 180.500 C 338.378 179.785,338.378 178.615,338.289 177.900 C 338.201 177.185,338.128 177.770,338.128 179.200 M340.313 187.000 C 340.545 187.440,341.418 188.430,342.253 189.200 C 343.633 190.472,342.457 188.958,340.078 186.400 C 339.975 186.290,340.081 186.560,340.313 187.000 M361.078 189.013 C 360.460 189.556,360.114 190.000,360.308 190.000 C 360.502 190.000,361.083 189.550,361.600 189.000 C 362.795 187.728,362.531 187.734,361.078 189.013 M358.300 191.029 C 356.805 191.840,356.896 192.178,358.400 191.400 C 359.060 191.059,359.600 190.694,359.600 190.590 C 359.600 190.332,359.557 190.347,358.300 191.029 M351.105 193.083 C 351.602 193.179,352.322 193.175,352.705 193.075 C 353.087 192.975,352.680 192.896,351.800 192.901 C 350.920 192.905,350.607 192.987,351.105 193.083 M303.614 247.974 C 303.349 248.469,303.212 253.897,303.234 263.074 C 303.258 272.852,303.391 277.019,303.653 276.200 C 303.889 275.464,303.938 270.048,303.781 262.200 C 303.605 253.465,303.660 249.051,303.952 248.300 C 304.444 247.036,304.228 246.827,303.614 247.974 M100.900 289.900 C 135.825 289.956,192.975 289.956,227.900 289.900 C 262.825 289.844,234.250 289.798,164.400 289.798 C 94.550 289.798,65.975 289.844,100.900 289.900 M38.100 303.476 C 38.485 303.576,39.115 303.576,39.500 303.476 C 39.885 303.375,39.570 303.293,38.800 303.293 C 38.030 303.293,37.715 303.375,38.100 303.476 M301.500 303.500 C 319.595 303.558,349.205 303.558,367.300 303.500 C 385.395 303.442,370.590 303.395,334.400 303.395 C 298.210 303.395,283.405 303.442,301.500 303.500 M21.586 311.500 L 19.400 313.800 21.700 311.614 C 22.965 310.411,24.000 309.376,24.000 309.314 C 24.000 309.017,23.618 309.363,21.586 311.500 M62.124 330.900 C 61.716 331.530,61.693 358.785,62.100 358.536 C 62.265 358.435,62.400 352.242,62.400 344.774 L 62.400 331.194 89.700 331.297 L 117.000 331.400 117.227 334.600 L 117.453 337.800 117.527 334.580 C 117.574 332.517,117.427 331.187,117.120 330.880 C 116.408 330.168,62.585 330.187,62.124 330.900 M13.693 332.000 C 13.693 332.770,13.775 333.085,13.876 332.700 C 13.976 332.315,13.976 331.685,13.876 331.300 C 13.775 330.915,13.693 331.230,13.693 332.000 M262.622 334.500 C 263.211 342.580,266.283 354.594,268.499 357.482 C 268.702 357.748,268.744 358.166,268.592 358.412 C 268.391 358.738,270.527 358.825,276.458 358.730 C 285.566 358.585,286.231 358.416,288.279 355.733 L 289.400 354.264 289.600 342.732 L 289.800 331.199 276.091 331.200 L 262.381 331.200 262.622 334.500 M303.606 354.900 C 303.611 355.628,303.686 355.685,304.000 355.200 C 304.501 354.424,304.501 354.000,304.000 354.000 C 303.780 354.000,303.603 354.405,303.606 354.900 M296.887 367.609 C 296.419 368.359,296.441 368.381,297.191 367.913 C 297.636 367.635,298.000 367.271,298.000 367.104 C 298.000 366.526,297.391 366.803,296.887 367.609 " stroke="none" fill="#bb9143" fill-rule="evenodd"></path><path id="path6" d="M365.393 69.000 C 365.393 92.320,365.441 101.919,365.500 90.331 C 365.559 78.742,365.559 59.662,365.500 47.931 C 365.441 36.199,365.393 45.680,365.393 69.000 M161.400 27.665 C 152.649 28.513,147.041 29.701,138.800 32.456 C 129.035 35.721,119.320 41.022,110.972 47.643 C 107.433 50.449,99.491 58.025,99.783 58.316 C 99.886 58.419,101.462 56.986,103.285 55.132 C 109.994 48.307,119.260 41.589,127.400 37.647 C 137.948 32.539,148.786 29.412,159.400 28.414 C 165.538 27.837,173.713 27.873,174.320 28.480 C 174.693 28.853,174.800 28.821,174.800 28.336 C 174.800 27.218,169.014 26.928,161.400 27.665 M303.396 138.500 C 302.888 140.583,303.387 220.747,303.911 221.271 C 304.325 221.685,304.343 221.555,304.003 220.582 C 303.720 219.769,303.620 206.184,303.693 178.491 C 303.752 156.001,303.758 137.600,303.708 137.600 C 303.657 137.600,303.517 138.005,303.396 138.500 M350.707 165.490 C 351.426 165.579,352.506 165.577,353.107 165.486 C 353.708 165.395,353.120 165.322,351.800 165.324 C 350.480 165.326,349.988 165.401,350.707 165.490 M345.800 166.542 C 342.619 168.027,338.791 171.928,338.804 173.672 C 338.806 173.962,339.350 173.253,340.014 172.097 C 341.370 169.731,343.986 167.609,347.000 166.426 C 348.100 165.995,348.730 165.634,348.400 165.625 C 348.070 165.615,346.900 166.028,345.800 166.542 M358.827 167.531 C 361.521 169.239,363.761 172.025,364.744 174.890 C 365.218 176.270,365.522 176.828,365.419 176.129 C 365.178 174.493,363.834 171.694,362.637 170.335 C 361.433 168.969,358.074 166.400,357.491 166.400 C 357.245 166.400,357.846 166.909,358.827 167.531 M338.154 174.977 C 338.032 175.294,338.003 175.879,338.089 176.277 C 338.187 176.728,338.324 176.512,338.454 175.700 C 338.671 174.338,338.530 173.996,338.154 174.977 M337.786 180.055 C 338.040 185.384,342.992 192.421,346.472 192.396 C 346.762 192.394,346.100 191.872,345.000 191.235 C 340.870 188.844,338.598 185.231,338.002 180.105 L 337.641 177.000 337.786 180.055 M365.714 179.400 C 365.717 180.500,365.795 180.903,365.887 180.295 C 365.979 179.686,365.977 178.786,365.882 178.295 C 365.787 177.803,365.711 178.300,365.714 179.400 M364.984 182.900 C 364.621 184.583,363.965 185.844,362.200 188.247 L 360.766 190.200 362.220 188.600 C 364.190 186.432,366.429 181.600,365.464 181.600 C 365.354 181.600,365.138 182.185,364.984 182.900 M359.256 190.834 C 358.736 191.255,358.466 191.594,358.656 191.587 C 359.144 191.569,360.576 190.443,360.371 190.239 C 360.277 190.145,359.775 190.413,359.256 190.834 M357.545 191.788 C 357.442 191.892,356.377 192.240,355.179 192.562 C 353.776 192.939,353.374 193.157,354.051 193.174 C 355.080 193.199,358.000 192.180,358.000 191.795 C 358.000 191.548,357.789 191.545,357.545 191.788 M347.415 192.824 C 347.543 193.031,348.297 193.200,349.090 193.200 C 350.861 193.200,350.700 192.990,348.691 192.680 C 347.791 192.541,347.276 192.599,347.415 192.824 M218.608 199.034 C 215.494 201.150,208.809 204.693,205.200 206.140 C 203.336 206.888,202.241 207.334,200.700 207.974 C 199.894 208.308,198.914 208.622,195.600 209.609 C 195.050 209.773,193.790 210.123,192.800 210.387 C 191.056 210.851,190.340 211.024,186.294 211.959 C 185.246 212.202,183.716 212.418,182.894 212.440 C 182.072 212.462,180.950 212.638,180.400 212.832 C 178.728 213.421,184.128 212.828,187.945 212.004 C 197.919 209.850,206.021 206.818,214.800 201.954 C 217.611 200.397,222.000 197.473,222.000 197.159 C 222.000 196.695,222.273 196.544,218.608 199.034 M144.671 210.160 C 144.375 210.932,153.947 213.186,157.567 213.197 C 159.391 213.203,158.105 212.773,155.153 212.390 C 153.529 212.180,151.300 211.818,150.200 211.586 C 149.100 211.354,147.660 211.063,147.000 210.940 C 146.340 210.816,145.596 210.459,145.347 210.146 C 144.957 209.655,144.864 209.657,144.671 210.160 M161.200 213.637 C 164.588 213.988,173.939 213.989,177.000 213.638 C 178.349 213.483,174.844 213.363,169.000 213.364 C 163.091 213.366,159.723 213.483,161.200 213.637 M38.400 303.600 C 37.410 303.754,88.485 303.907,151.900 303.940 C 232.746 303.982,267.200 304.127,267.200 304.424 C 267.200 304.657,267.380 304.736,267.600 304.600 C 267.820 304.464,268.000 304.093,268.000 303.776 C 268.000 303.156,42.369 302.983,38.400 303.600 M33.058 304.652 C 31.990 304.980,31.211 305.344,31.328 305.461 C 31.445 305.578,32.139 305.482,32.870 305.248 C 33.602 305.015,34.740 304.652,35.400 304.443 C 36.187 304.194,36.325 304.062,35.800 304.059 C 35.360 304.057,34.126 304.324,33.058 304.652 M27.675 307.044 C 21.333 310.638,17.101 316.227,14.407 324.565 C 11.031 335.013,18.491 350.053,29.800 355.599 C 35.584 358.435,36.696 358.600,50.000 358.600 L 61.800 358.600 61.800 345.000 C 61.800 337.520,61.946 331.175,62.124 330.900 C 62.377 330.508,68.317 330.400,89.600 330.400 C 110.883 330.400,116.823 330.508,117.076 330.900 C 117.254 331.175,117.400 337.520,117.400 345.000 L 117.400 358.600 192.779 358.701 C 267.295 358.801,269.491 358.767,268.527 357.517 C 267.987 356.817,265.821 351.198,264.858 348.000 C 264.427 346.570,264.058 345.747,264.037 346.172 C 263.989 347.179,264.535 348.867,266.602 354.100 L 268.301 358.400 192.951 358.400 L 117.600 358.400 117.600 348.219 L 117.600 338.038 135.700 337.919 L 153.800 337.800 155.281 336.800 C 160.502 333.276,158.928 325.566,152.743 324.372 C 150.466 323.932,35.534 323.932,33.257 324.372 C 26.960 325.588,25.678 334.015,31.321 337.100 C 32.459 337.723,34.195 337.814,47.100 337.923 L 61.600 338.046 61.600 348.223 L 61.600 358.400 51.124 358.400 C 34.216 358.400,28.441 356.493,21.264 348.541 C 9.526 335.535,13.581 313.824,29.067 306.770 C 30.673 306.038,31.223 305.591,30.500 305.606 C 30.335 305.610,29.064 306.256,27.675 307.044 M265.000 310.400 C 264.850 310.873,264.817 311.350,264.927 311.460 C 265.037 311.570,265.250 311.273,265.400 310.800 C 265.550 310.327,265.583 309.850,265.473 309.740 C 265.363 309.630,265.150 309.927,265.000 310.400 M263.473 315.753 C 263.323 316.145,263.211 316.766,263.225 317.133 C 263.242 317.575,263.381 317.474,263.637 316.834 C 263.849 316.303,263.961 315.682,263.885 315.454 C 263.809 315.227,263.624 315.361,263.473 315.753 M262.656 320.084 C 262.521 320.588,262.427 321.360,262.446 321.800 C 262.465 322.240,262.645 321.898,262.846 321.040 C 263.236 319.378,263.070 318.540,262.656 320.084 M261.795 327.310 C 261.645 328.708,261.720 330.867,261.963 332.183 C 262.203 333.483,262.400 335.580,262.400 336.843 C 262.400 338.106,262.597 340.098,262.837 341.269 C 263.077 342.441,263.356 343.826,263.456 344.347 C 263.954 346.930,263.929 344.439,263.422 340.966 C 262.399 333.954,262.026 329.456,262.272 327.100 C 262.404 325.835,262.411 324.800,262.288 324.800 C 262.165 324.800,261.943 325.929,261.795 327.310 " stroke="none" fill="#e2cb7e" fill-rule="evenodd"></path><path id="path7" d="M174.800 27.931 C 174.800 28.113,175.340 28.182,176.000 28.085 C 176.660 27.988,177.200 27.840,177.200 27.755 C 177.200 27.670,176.660 27.600,176.000 27.600 C 175.340 27.600,174.800 27.749,174.800 27.931 M178.033 28.148 C 178.125 28.229,179.550 28.399,181.200 28.525 C 183.046 28.666,183.815 28.625,183.200 28.417 C 182.226 28.089,177.701 27.853,178.033 28.148 M303.393 69.200 C 303.393 91.750,303.441 100.975,303.500 89.700 C 303.559 78.425,303.559 59.975,303.500 48.700 C 303.441 37.425,303.393 46.650,303.393 69.200 M185.400 29.200 C 187.197 29.657,188.864 29.657,187.800 29.200 C 187.360 29.011,186.370 28.865,185.600 28.875 L 184.200 28.895 185.400 29.200 M189.400 30.000 C 190.584 30.509,191.987 30.509,191.200 30.000 C 190.870 29.787,190.150 29.622,189.600 29.634 C 188.684 29.654,188.667 29.685,189.400 30.000 M192.600 30.800 C 193.784 31.309,195.187 31.309,194.400 30.800 C 194.070 30.587,193.350 30.422,192.800 30.434 C 191.884 30.454,191.867 30.485,192.600 30.800 M195.237 31.371 C 195.331 31.464,196.846 32.015,198.604 32.594 C 200.362 33.173,202.340 33.890,203.000 34.186 C 203.660 34.482,204.920 35.018,205.800 35.378 C 209.104 36.729,209.600 37.009,209.600 37.521 C 209.600 37.811,209.763 37.947,209.962 37.823 C 210.272 37.632,213.414 39.014,214.000 39.600 C 214.396 39.996,216.615 41.254,217.300 41.471 C 217.685 41.593,218.000 41.852,218.000 42.047 C 218.000 42.241,218.270 42.400,218.600 42.400 C 218.930 42.400,219.200 42.580,219.200 42.800 C 219.200 43.020,219.399 43.200,219.643 43.200 C 220.098 43.200,226.702 48.020,229.200 50.176 C 232.892 53.362,240.267 61.100,241.994 63.600 C 242.526 64.370,243.081 65.090,243.228 65.200 C 244.765 66.356,253.032 81.068,254.860 85.900 C 255.466 87.503,256.085 88.984,256.447 89.695 C 256.641 90.077,256.800 90.741,256.800 91.171 C 256.800 91.601,256.959 92.051,257.154 92.171 C 257.349 92.292,257.607 92.887,257.729 93.495 C 257.937 94.532,258.176 95.521,259.228 99.700 C 259.738 101.725,260.259 104.643,260.890 109.000 C 261.491 113.155,261.487 128.484,260.883 132.600 C 260.625 134.360,260.311 136.610,260.184 137.600 C 260.058 138.590,259.797 139.760,259.605 140.200 C 259.412 140.640,259.144 141.630,259.008 142.400 C 258.873 143.170,258.661 144.387,258.537 145.104 C 258.413 145.821,258.151 146.506,257.956 146.627 C 257.760 146.748,257.600 147.276,257.600 147.800 C 257.600 148.324,257.420 148.864,257.200 149.000 C 256.980 149.136,256.800 149.676,256.800 150.200 C 256.800 150.724,256.656 151.242,256.479 151.351 C 256.303 151.460,255.907 152.472,255.600 153.600 C 255.293 154.728,254.897 155.740,254.721 155.849 C 254.544 155.958,254.400 156.391,254.400 156.810 C 254.400 158.818,247.631 170.665,242.863 177.000 C 237.299 184.395,224.069 196.658,221.824 196.501 C 221.075 196.449,221.065 196.481,221.706 196.845 C 222.341 197.206,224.307 196.279,225.200 195.196 C 225.310 195.063,225.779 194.694,226.243 194.377 C 237.080 186.960,250.387 169.281,255.580 155.400 C 256.074 154.080,256.629 152.640,256.813 152.200 C 257.841 149.743,259.574 143.535,260.553 138.800 C 262.651 128.663,262.739 113.699,260.759 103.800 C 259.570 97.854,257.393 90.198,255.925 86.800 C 255.687 86.250,255.361 85.440,255.199 85.000 C 250.523 72.291,237.606 55.515,225.600 46.559 C 221.253 43.317,218.172 41.200,217.800 41.200 C 217.659 41.200,216.792 40.683,215.872 40.052 C 211.560 37.091,193.258 29.391,195.237 31.371 M167.004 39.596 C 166.374 40.254,165.935 40.856,166.029 40.934 C 166.123 41.012,166.713 40.474,167.339 39.738 C 168.754 38.077,168.545 37.988,167.004 39.596 M164.171 42.503 L 163.000 43.797 164.200 42.799 C 164.860 42.249,165.475 41.755,165.567 41.700 C 165.658 41.645,165.645 41.512,165.538 41.404 C 165.430 41.296,164.815 41.791,164.171 42.503 M114.200 58.000 L 112.600 58.286 114.000 58.337 C 114.770 58.365,115.670 58.213,116.000 58.000 C 116.655 57.577,116.562 57.577,114.200 58.000 M97.763 60.258 C 96.903 61.280,95.511 63.035,94.669 64.158 C 93.827 65.281,92.747 66.711,92.269 67.335 C 91.791 67.959,90.974 69.219,90.453 70.135 C 89.932 71.051,89.194 72.250,88.812 72.800 C 87.606 74.540,84.924 79.702,83.824 82.400 C 83.241 83.830,82.592 85.405,82.382 85.900 C 82.172 86.395,81.829 87.205,81.620 87.700 C 81.107 88.915,79.990 92.281,79.530 94.000 C 79.324 94.770,78.971 96.030,78.747 96.800 C 73.592 114.507,74.961 136.936,82.324 155.400 C 84.888 161.830,91.418 173.738,93.181 175.200 C 93.314 175.310,94.494 176.837,95.804 178.594 C 100.458 184.834,108.859 192.631,116.800 198.082 C 119.961 200.252,127.717 204.800,128.256 204.800 C 128.340 204.800,129.217 205.160,130.204 205.600 C 131.192 206.040,132.808 206.760,133.796 207.200 C 134.783 207.640,135.833 208.000,136.129 208.000 C 136.425 208.000,136.789 208.122,136.938 208.271 C 138.004 209.337,144.800 210.864,144.800 210.037 C 144.800 209.838,144.470 209.761,144.066 209.867 C 141.608 210.510,124.302 202.927,118.758 198.778 C 117.745 198.020,115.780 196.590,114.392 195.600 C 113.004 194.610,111.672 193.620,111.434 193.400 C 111.195 193.180,110.333 192.502,109.518 191.894 C 107.148 190.124,100.708 183.552,97.388 179.516 C 93.511 174.802,93.510 174.800,92.832 173.494 C 92.520 172.892,92.115 172.400,91.932 172.400 C 91.750 172.400,91.600 172.164,91.600 171.875 C 91.600 171.587,91.285 170.994,90.900 170.558 C 89.456 168.924,85.106 160.589,83.181 155.768 C 75.636 136.876,74.288 117.485,79.152 97.800 C 79.954 94.551,80.326 93.325,81.520 90.000 C 82.191 88.130,82.956 85.970,83.221 85.200 C 85.593 78.299,93.033 66.112,98.544 60.100 C 99.401 59.165,99.927 58.400,99.714 58.400 C 99.500 58.400,98.623 59.236,97.763 60.258 M330.500 110.265 C 329.804 110.546,329.873 111.200,330.600 111.200 C 330.930 111.200,331.200 110.930,331.200 110.600 C 331.200 110.270,331.155 110.014,331.100 110.032 C 331.045 110.049,330.775 110.154,330.500 110.265 " stroke="none" fill="#99bc4a" fill-rule="evenodd"></path><path id="path8" d="M159.600 27.617 C 158.985 27.825,159.754 27.866,161.600 27.725 C 163.250 27.599,164.675 27.429,164.767 27.348 C 165.099 27.053,160.574 27.289,159.600 27.617 M173.091 27.489 C 173.801 27.577,175.061 27.579,175.891 27.492 C 176.721 27.405,176.140 27.333,174.600 27.331 C 173.060 27.329,172.381 27.400,173.091 27.489 M153.400 28.400 L 152.600 28.744 153.400 28.732 C 153.840 28.726,154.650 28.576,155.200 28.400 L 156.200 28.080 155.200 28.068 C 154.650 28.062,153.840 28.211,153.400 28.400 M149.200 29.200 C 148.396 29.457,148.357 29.523,149.000 29.532 C 149.440 29.538,150.160 29.389,150.600 29.200 C 151.619 28.762,150.568 28.762,149.200 29.200 M145.600 30.000 C 144.796 30.257,144.757 30.323,145.400 30.332 C 145.840 30.338,146.560 30.189,147.000 30.000 C 148.019 29.562,146.968 29.562,145.600 30.000 M142.800 30.800 C 141.976 31.064,141.941 31.126,142.600 31.154 C 143.040 31.173,143.670 31.013,144.000 30.800 C 144.701 30.347,144.214 30.347,142.800 30.800 M138.843 32.005 C 137.657 32.431,136.577 32.904,136.443 33.054 C 136.309 33.204,136.550 33.201,136.978 33.046 C 137.406 32.892,138.621 32.482,139.678 32.137 C 140.735 31.791,141.600 31.439,141.600 31.354 C 141.600 31.082,141.045 31.213,138.843 32.005 M129.870 35.479 C 129.248 35.805,128.826 36.159,128.932 36.265 C 129.038 36.371,129.816 36.093,130.662 35.647 C 131.508 35.200,131.930 34.846,131.600 34.860 C 131.270 34.874,130.491 35.152,129.870 35.479 M123.900 38.629 C 122.405 39.440,122.496 39.778,124.000 39.000 C 124.660 38.659,125.200 38.294,125.200 38.190 C 125.200 37.932,125.157 37.947,123.900 38.629 M113.185 45.629 L 111.800 46.858 113.300 45.781 C 114.626 44.830,115.057 44.400,114.685 44.400 C 114.622 44.400,113.947 44.953,113.185 45.629 M108.046 49.606 C 107.301 50.263,106.862 50.800,107.071 50.800 C 107.280 50.800,107.968 50.260,108.600 49.600 C 110.070 48.065,109.791 48.069,108.046 49.606 M102.791 54.700 L 99.400 58.200 102.900 54.809 C 104.825 52.944,106.400 51.369,106.400 51.309 C 106.400 51.018,105.941 51.449,102.791 54.700 M303.043 137.833 C 302.693 138.745,302.755 220.110,303.106 220.662 C 303.268 220.916,303.352 202.595,303.293 179.949 C 303.219 151.673,303.317 138.528,303.607 137.987 C 303.847 137.539,303.868 137.200,303.657 137.200 C 303.453 137.200,303.176 137.485,303.043 137.833 M218.193 199.856 C 216.152 201.209,215.432 201.923,217.026 201.014 C 218.430 200.214,220.301 198.822,219.993 198.809 C 219.879 198.804,219.069 199.275,218.193 199.856 M214.000 202.433 L 213.000 203.248 214.300 202.614 C 215.015 202.265,215.600 201.894,215.600 201.790 C 215.600 201.392,214.963 201.648,214.000 202.433 M143.800 210.800 C 143.936 211.020,144.442 211.187,144.924 211.172 C 145.769 211.145,145.771 211.131,145.000 210.800 C 143.899 210.327,143.508 210.327,143.800 210.800 M193.000 210.800 C 192.229 211.131,192.231 211.145,193.076 211.172 C 193.558 211.187,194.064 211.020,194.200 210.800 C 194.492 210.327,194.101 210.327,193.000 210.800 M190.000 211.600 C 189.176 211.864,189.141 211.926,189.800 211.954 C 190.240 211.973,190.870 211.813,191.200 211.600 C 191.901 211.147,191.414 211.147,190.000 211.600 M150.400 212.394 C 150.730 212.611,151.435 212.791,151.967 212.794 C 153.251 212.802,152.925 212.575,151.200 212.258 C 150.215 212.077,149.978 212.118,150.400 212.394 M186.000 212.400 L 185.000 212.720 186.000 212.754 C 186.550 212.773,187.270 212.613,187.600 212.400 C 188.364 211.906,187.542 211.906,186.000 212.400 M154.600 213.192 C 155.357 213.525,159.121 213.763,158.767 213.456 C 158.675 213.376,157.520 213.205,156.200 213.076 C 154.676 212.926,154.092 212.969,154.600 213.192 M180.800 213.200 L 179.000 213.480 180.800 213.534 C 181.790 213.563,182.870 213.413,183.200 213.200 C 183.905 212.745,183.729 212.745,180.800 213.200 M161.420 214.053 C 162.980 214.387,175.143 214.393,176.319 214.060 C 176.825 213.917,173.414 213.800,168.739 213.800 C 164.064 213.800,160.771 213.914,161.420 214.053 M267.655 304.521 C 267.368 305.225,266.980 306.160,266.793 306.600 C 264.979 310.866,261.513 325.062,263.180 321.400 C 263.380 320.960,263.556 320.073,263.572 319.428 C 263.587 318.784,263.768 317.704,263.973 317.028 C 264.178 316.353,264.564 314.990,264.831 314.000 C 265.618 311.075,266.257 309.164,267.411 306.283 C 268.009 304.788,268.426 303.493,268.338 303.404 C 268.249 303.316,267.942 303.818,267.655 304.521 M262.272 326.491 C 262.121 328.960,262.177 330.737,262.411 330.971 C 262.663 331.223,262.800 329.781,262.800 326.880 C 262.800 321.299,262.597 321.150,262.272 326.491 " stroke="none" fill="#eecc46" fill-rule="evenodd"></path></g></svg>