<?xml version="1.0" encoding="utf-8"?>
<!-- Uploaded to: SVG Repo, www.svgrepo.com, Generator: SVG Repo Mixer Tools -->
<svg width="800px" height="800px" viewBox="0 -12.07 361.717 361.717" xmlns="http://www.w3.org/2000/svg"><defs><style>.a{fill:#ffffff;}.b{fill:#211715;}.c{fill:#f4b867;}.d{fill:#957f6e;}</style></defs><path class="a" d="M270.181,230.456s5.13-3.394,5.671-3.756c2.411-1.613,5.842-6.04,6.164-8.924s-.127-5.83.378-8.687c.834-4.717,4.124-8.568,7.287-12.164,3.249-3.7,6.533-7.423,10.5-10.335,2.035-1.493,4.387-2.8,6.91-2.732s5.131,1.988,5.146,4.512c.012,1.911-1.36,3.515-2.652,4.924-2.486,2.71-3.781,4.121-6.263,6.833q3.195.166,6.4.152c2.594-.01,12.9-3.77,15.972-4.934,3.609-1.368,6.591-2.817,9.5-4.017,3.45-1.424,5.429-2.638,9.082-3.477,3.046-.7,4.839-.265,6.676.928a3.983,3.983,0,0,1,2.017,3.083c2.17.042,3.885,2.116,4.389,3.777.934,3.079.979,5.892-.9,6.966,4.378,2.2,2.458,9.14,2,10.268a11.339,11.339,0,0,1-3.217,3.961,93.609,93.609,0,0,1-43.563,21.731c-2.991.6-6.133,1.1-8.6,2.9-4.766,3.48-5.474,10.609-9.967,14.434"/><path class="b" d="M305.014,201.824c2.175-2.372,4.38-4.72,6.527-7.118,2.269-2.533,4.12-5.794,2.388-9.16a8.076,8.076,0,0,0-8.084-4.014c-3.664.424-6.73,2.7-9.461,5.025a75.291,75.291,0,0,0-7.513,7.663,56.584,56.584,0,0,0-6.327,8.022,19.64,19.64,0,0,0-2.808,10.212,39.541,39.541,0,0,1-.07,4.942,8.833,8.833,0,0,1-1.609,3.512c-2.28,3.429-5.676,5.218-9.087,7.476-2.565,1.7-.164,5.855,2.422,4.144,2.5-1.656,5.3-3.169,7.506-5.224a20.041,20.041,0,0,0,4.632-6.377c1.3-2.943.926-6.062,1.02-9.2.186-6.211,4.7-10.75,8.608-15.121a66.34,66.34,0,0,1,6.962-6.944c1.912-1.589,4.684-3.832,7.363-3.364a2.9,2.9,0,0,1,2.3,1.712c.309,1.106-.688,2.227-1.373,3.01-2.2,2.519-4.525,4.942-6.786,7.408-2.085,2.273,1.3,5.676,3.394,3.394Z"/><path class="b" d="M299.852,202.3c2.544.2,5.092.333,7.644.372a19.524,19.524,0,0,0,4.518-.314,74.269,74.269,0,0,0,8.522-2.6c6.861-2.377,13.416-5.4,20.1-8.215a16.377,16.377,0,0,1,6.426-1.622c1.058.025,3.4.779,3.5,1.945a2.473,2.473,0,0,0,2.4,2.4c1.3.089,1.984,1.634,2.252,2.64a8,8,0,0,1,.362,2.633c-.039.5-.1.846-.34,1a2.425,2.425,0,0,0,0,4.145,2.378,2.378,0,0,1,1,.8c-.227-.3.208.4.193.368.336.642-.07-.321.149.373a6.666,6.666,0,0,1,.249,2.816,8.5,8.5,0,0,1-1.27,4.073,21.593,21.593,0,0,1-3.3,3.141c-1.336,1.145-2.7,2.257-4.108,3.314a93.113,93.113,0,0,1-8.387,5.623,91.169,91.169,0,0,1-18.165,8.281,92.223,92.223,0,0,1-9.751,2.618c-3.292.693-6.793,1.164-9.655,3.077-2.767,1.851-4.51,4.644-5.977,7.565-1.338,2.665-2.533,5.475-4.815,7.482-2.324,2.044,1.081,5.428,3.394,3.394a22.952,22.952,0,0,0,5.026-7.365c1.167-2.359,2.325-5.029,4.455-6.694,2.709-2.118,6.64-2.333,9.876-3.053a92.318,92.318,0,0,0,10.319-2.935,96.957,96.957,0,0,0,19.334-9.211,98.667,98.667,0,0,0,8.922-6.3c2.642-2.083,5.952-4.37,7.535-7.426,2.265-4.371,2.206-11.5-2.609-14.087v4.145c3.116-2,3.037-5.836,2.183-9.051-.871-3.282-3.383-5.925-6.88-6.164l2.4,2.4c-.384-4.638-5.35-7.137-9.6-6.674-4.682.51-8.979,2.845-13.245,4.687a159.242,159.242,0,0,1-19.634,7.3c-.742.211-1.489.412-2.245.571-.279.059-.558.114-.84.155.85-.124-.511-.021-.572-.021-3.128,0-6.254-.135-9.372-.385a2.421,2.421,0,0,0-2.4,2.4,2.448,2.448,0,0,0,2.4,2.4Z"/><path class="b" d="M318.57,213.24c7.275-2.836,14.272-6.256,21.355-9.529a2.419,2.419,0,0,0,.861-3.283,2.455,2.455,0,0,0-3.284-.861c-6.7,3.1-13.321,6.36-20.208,9.045a2.47,2.47,0,0,0-1.676,2.952,2.416,2.416,0,0,0,2.952,1.676Z"/><path class="b" d="M326.081,220.692a212.659,212.659,0,0,0,23.045-10.828c2.683-1.53.267-5.679-2.423-4.145a202.173,202.173,0,0,1-21.9,10.344,2.483,2.483,0,0,0-1.676,2.953,2.414,2.414,0,0,0,2.952,1.676Z"/><path class="b" d="M298.238,223.645c.4-.115.809-.216,1.221-.3a3.435,3.435,0,0,1,.707-.123l-.282.038q.178-.022.357-.039a14.944,14.944,0,0,1,2.512-.036c.179.012.357.033.536.047q.41.048-.1-.02c.119.017.237.035.355.055.414.069.824.154,1.23.258s.808.224,1.2.361c.17.059.336.126.5.186q.372.15-.075-.037c.11.048.22.1.328.147a2.459,2.459,0,0,0,3.284-.861,2.43,2.43,0,0,0-.861-3.284,17.658,17.658,0,0,0-12.194-1.023,2.4,2.4,0,1,0,1.276,4.629Z"/><path class="b" d="M313.519,208.88l9.676,15.486a2.4,2.4,0,1,0,4.144-2.423l-9.676-15.485a2.4,2.4,0,1,0-4.144,2.422Z"/><path class="c" d="M161.731,174.726c14.836,5.91,25.473,12.043,38.831,20.795,7.154,4.687,14.244,9.959,18.671,17.279a65.418,65.418,0,0,1,4.949,11.091c2.1,5.618,7.748,24.267,11.748,35.378l.217.605c12.34-12.523,19.954-20.237,32.919-32.968a1.463,1.463,0,0,1,.814-.534c.485-.043.849.413,1.12.818a99.034,99.034,0,0,0,25.932,26.36s.581.4,1.151.819a403.647,403.647,0,0,1-52.723,58.054c-4.153,3.763-8.826,7.63-14.42,7.977-7.11.441-13.178-4.9-17.858-10.272-8.779-10.076-13.41-16-18.638-28.5-.274,1.771-.53,3.557-.755,5.364-.289,13.157,1.184,26.86,1.184,47.409l-37.5.858c-1.59-48.822,2.532-142.063,3.6-160.533"/><path class="a" d="M176.135,88.744a8.03,8.03,0,0,1,6.425-1.88,7.585,7.585,0,0,1,5.452,3.625,10.714,10.714,0,0,1,1.122,4.313,32.129,32.129,0,0,1-3.275,17.029,20.412,20.412,0,0,1-5.28,6.929,13.531,13.531,0,0,1-6.3,2.838l-1.078.167c-.517,1.933-1.1,3.562-1.382,4.427-1.807,4.905-11.806,21.714-24.462,28.2a79.579,79.579,0,0,0,1.178,10.919c.7,3.99.49,7.56,6.04,9.56.37.14,6.61,2.57,7.18,2.81,0,0-.234,31.362-40.275,31.362S86.36,176.225,86.36,176.225c1.07-.36,3.65-1.21,4.02-1.35,5.55-2,5.33-5.57,6.03-9.56A78.547,78.547,0,0,0,97.6,154.522a47.574,47.574,0,0,1-14.916-12.285A54.623,54.623,0,0,1,72.27,121.914l-2.053-.316a13.531,13.531,0,0,1-6.3-2.838,20.412,20.412,0,0,1-5.28-6.929A32.129,32.129,0,0,1,55.367,94.8a10.7,10.7,0,0,1,1.122-4.313,7.585,7.585,0,0,1,5.452-3.625,8.03,8.03,0,0,1,6.425,1.88S58.374,40.6,122.818,40.6,176.135,88.744,176.135,88.744Z"/><path class="d" d="M78.109,164.221c7.535-1.146,13.934-4.792,16.774-9.052l.987-1.584a48.965,48.965,0,0,1-13.188-11.348,54.622,54.622,0,0,1-10.413-20.326l-2.052-.313a13.531,13.531,0,0,1-6.3-2.838,16.647,16.647,0,0,1-2.187-2.149,26.753,26.753,0,0,0-2.707,8.946,43.777,43.777,0,0,0-.3,5.964q.01.607.044,1.218c.237,4.349,1.253,8.78,1.468,13.112.218,4.72-1.011,9.367-5.513,10.9-.178.06-.214.636-.209.783a2.051,2.051,0,0,0,.362,1.009,6.964,6.964,0,0,0,2.308,2.023C62.207,163.64,69.932,165.465,78.109,164.221Z"/><path class="d" d="M184.608,53.3c-.2-1.184-.411-2.281-.613-3.267C178.411,22.654,150.831.917,121.907,2.506,92.984.917,65.4,22.654,59.819,50.037c-1.513,7.386-1.332,20.022.044,25.918L62.632,86.8a7.971,7.971,0,0,1,5.734,1.943c11.431-7.929,30.821-21.7,40.861-30.338-.826,5.125-3.76,13.842-.064,12.946,15.434-3.574,30.226-10.781,39.17-22.025,1.885,6.639,5,15.608,7.289,19.527,3.239,5.546,12.624,18.025,20.513,19.89a8.03,8.03,0,0,1,6.425-1.88,7.692,7.692,0,0,1,1,.219C187.581,77.774,186.227,62.742,184.608,53.3Z"/><path class="b" d="M62.146,75.551a49.555,49.555,0,0,1-.969-9.647A86.538,86.538,0,0,1,61.6,54.129a50.267,50.267,0,0,1,6.938-19.921A61.1,61.1,0,0,1,102.531,7.371a55.018,55.018,0,0,1,10.9-2.274c3.776-.375,7.586-.268,11.372-.273a56.05,56.05,0,0,1,21.757,4.462,60.957,60.957,0,0,1,31.41,30.033,64.565,64.565,0,0,1,5.034,19.406c.919,7.419,1.426,15.283-.176,22.644a28.75,28.75,0,0,1-1.544,4.984,2.415,2.415,0,0,0,1.676,2.953,2.461,2.461,0,0,0,2.952-1.677c3.048-7.3,3-15.861,2.421-23.618-.547-7.275-1.553-14.783-3.994-21.687-5.3-14.992-16.687-27.556-30.694-34.958A63.253,63.253,0,0,0,130.559.315,111.126,111.126,0,0,0,118.647.024a59.8,59.8,0,0,0-12.04,1.32A65.982,65.982,0,0,0,67.379,27.231a58.188,58.188,0,0,0-9.654,21.14,73.617,73.617,0,0,0-.964,23.574,42.116,42.116,0,0,0,.757,4.882c.684,3.011,5.313,1.737,4.628-1.276Z"/><path class="b" d="M146.247,50.771c1.118,3.822,2.359,7.612,3.77,11.336A51,51,0,0,0,154,70.81a64.718,64.718,0,0,0,12.295,14.84c2.673,2.332,5.712,4.534,9.206,5.409,3,.749,4.276-3.878,1.276-4.629-5.359-1.341-9.964-6.6-13.458-10.836A50.272,50.272,0,0,1,155,61.742c-1.562-4.014-2.91-8.114-4.119-12.247-.865-2.959-5.5-1.7-4.629,1.276Z"/><path class="b" d="M146.791,47.434A55.5,55.5,0,0,1,127.78,62.282a80.964,80.964,0,0,1-11.7,4.692q-3.142,1-6.349,1.777c-.263.064-.541.116-.8.193-.393.116-.45-.081-.128.067-.145-.067-.325-.195.177.049a2.232,2.232,0,0,1,.6.352.628.628,0,0,1,.23.335c0-.069-.045-.458-.047-.133,0,.365-.01-.229-.01-.3-.024-3.308,1.225-6.827,1.8-10.271a2.422,2.422,0,0,0-4.011-2.335C97.454,65.354,86.511,73.039,75.683,80.7q-4.251,3.006-8.528,5.974a2.462,2.462,0,0,0-.861,3.284,2.421,2.421,0,0,0,3.283.861c11.3-7.843,22.532-15.823,33.4-24.268,2.694-2.094,5.361-4.224,7.951-6.446l-4.011-2.335c-.611,3.673-1.891,7.34-1.969,11.085a4.968,4.968,0,0,0,1.576,4.229c1.752,1.337,3.98.439,5.883-.055A82.019,82.019,0,0,0,138.72,61.4a53.671,53.671,0,0,0,11.465-10.571,2.475,2.475,0,0,0,0-3.394,2.417,2.417,0,0,0-3.394,0Z"/><path class="b" d="M59.655,115.4c-3.1,6.137-3.809,13.16-3.065,19.933.4,3.622,1.151,7.222,1.261,10.872.068,2.245-.122,4.884-1.595,6.71-.774.96-1.729,1.163-2.74,1.754-1.644.961-1.661,3.249-.887,4.764,1.363,2.668,4.739,4.112,7.376,5.181a35.74,35.74,0,0,0,19.6,1.778c6.576-1.182,13.479-4.356,17.349-10.009,1.75-2.556-2.408-4.959-4.144-2.423-3.661,5.347-11.313,7.731-17.462,8.167a31.828,31.828,0,0,1-11.189-1.136,24.2,24.2,0,0,1-4.274-1.665,15.577,15.577,0,0,1-2.138-1.251c-.231-.17-.47-.492-.706-.625-.3-.17-.023-.268-.115.057l-.617,1.059.11-.128-1.059.618c7.673-2.774,7.7-11.145,6.8-17.973-1.04-7.83-2.064-15.921,1.638-23.26,1.388-2.751-2.751-5.184-4.144-2.423Z"/><path class="b" d="M177.832,90.441a5.518,5.518,0,0,1,7.923.949,9.224,9.224,0,0,1,1.066,4.754,28.7,28.7,0,0,1-.341,6.065c-1.211,7.083-4.944,15.719-12.835,17.075a2.419,2.419,0,0,0-1.676,2.952,2.456,2.456,0,0,0,2.953,1.676c8.17-1.4,13.019-9.12,15.255-16.488a33.914,33.914,0,0,0,1.407-11.951c-.256-3.959-1.454-7.683-5.1-9.744a10.537,10.537,0,0,0-12.042,1.318,2.421,2.421,0,0,0,0,3.394,2.448,2.448,0,0,0,3.394,0Z"/><path class="b" d="M171.8,115.62a26.975,26.975,0,0,1-1.276,6.8c-.255.858-.537,1.707-.821,2.555-.077.229-.151.46-.235.687-.066.179-.365.846-.056.156a53.835,53.835,0,0,1-3.583,6.565,63.959,63.959,0,0,1-14.278,16.468,27.2,27.2,0,0,1-10.587,5.358c-3.009.692-1.736,5.321,1.276,4.629,8.046-1.85,14.78-7.653,20.082-13.725a69.309,69.309,0,0,0,11.052-16.461A35.143,35.143,0,0,0,176.6,115.62c.1-3.09-4.7-3.086-4.8,0Z"/><path class="b" d="M70.063,87.047a10.5,10.5,0,0,0-10.613-1.98c-3.931,1.551-5.9,4.858-6.4,8.928a32.942,32.942,0,0,0,5.766,22.774,17.219,17.219,0,0,0,10.759,7.143,2.471,2.471,0,0,0,2.953-1.676,2.42,2.42,0,0,0-1.677-2.952c-7.889-1.355-11.623-9.993-12.834-17.075a28.624,28.624,0,0,1-.35-5.841c.06-1.651.133-3.553,1.075-4.978a5.514,5.514,0,0,1,7.923-.949,2.461,2.461,0,0,0,3.394,0,2.421,2.421,0,0,0,0-3.394Z"/><path class="b" d="M68.226,114.844c2.923,16.865,12.063,33.37,27.689,41.509a37.5,37.5,0,0,0,13.559,4.056,2.415,2.415,0,0,0,2.4-2.4,2.454,2.454,0,0,0-2.4-2.4c-16.111-1.67-28.665-16.118-33.725-30.634a71.893,71.893,0,0,1-2.894-11.407,2.42,2.42,0,0,0-2.952-1.676,2.455,2.455,0,0,0-1.677,2.952Z"/><path class="b" d="M87,178.539a44.7,44.7,0,0,0,6-2.195,9.5,9.5,0,0,0,4.694-5.28,32.69,32.69,0,0,0,1.17-5.94A85.26,85.26,0,0,0,100,154.515c.128-3.089-4.673-3.083-4.8,0a74.48,74.48,0,0,1-.892,8.919,47.181,47.181,0,0,1-1.026,5.712c-.054.18-.115.358-.176.536-.085.248.133-.24-.059.151-.1.2-.2.4-.324.6-.011.019-.422.582-.166.268a5.219,5.219,0,0,1-2.118,1.573,42.708,42.708,0,0,1-4.718,1.64,2.457,2.457,0,0,0-1.676,2.953A2.425,2.425,0,0,0,87,178.539Z"/><path class="b" d="M144.96,154.4a116.659,116.659,0,0,0,1.474,12.871c.4,2.644.97,5.231,2.92,7.207,1.74,1.764,4.1,2.524,6.352,3.4,1.806.7,3.625,1.382,5.415,2.125a2.415,2.415,0,0,0,2.953-1.676,2.462,2.462,0,0,0-1.676-2.953c-1.584-.656-3.192-1.258-4.788-1.88-1.546-.6-3.549-1.182-4.671-2.226a4.1,4.1,0,0,1-1.255-2.075,24.887,24.887,0,0,1-.66-3.459A100.784,100.784,0,0,1,149.76,154.4c-.12-3.079-4.92-3.095-4.8,0Z"/><path class="a" d="M89.188,335.259c1.36-41.755-1.458-116-2.979-148.167a48.843,48.843,0,0,0,37.312,17.392c13.845-.186,27.785-7.051,36.882-18.4-1.506,31.605-4.4,106.977-3.025,149.172"/><path class="c" d="M89.188,335.259c1.594-48.964-2.556-142.605-3.612-160.693-15.035,5.965-25.739,12.129-39.211,20.955-7.154,4.687-14.244,9.959-18.671,17.279a65.418,65.418,0,0,0-4.949,11.091C11.759,253.3,7.411,301.569,2.354,334.4"/><path class="b" d="M45.261,253.126a118.281,118.281,0,0,0,1.768,18.2c.474,2.966.989,5.925,1.468,8.89a56.446,56.446,0,0,1,1.018,8.209c.112,8.939-.471,17.875-.812,26.8-.244,6.388-.393,12.778-.4,19.171,0,3.089,4.8,3.093,4.8,0,.007-10.576.5-21.13.923-31.695.172-4.277.314-8.557.3-12.838-.022-5.635-1.252-11.243-2.174-16.789a124.306,124.306,0,0,1-2.092-19.953c-.01-3.088-4.81-3.094-4.8,0Z"/><path class="b" d="M83.185,174.726c.357,6.17.637,12.345.913,18.52q.674,15.081,1.213,30.169.665,18.381,1.135,36.769c.316,12.577.556,25.157.656,37.739.089,11.242.083,22.489-.209,33.729q-.047,1.8-.105,3.607c-.1,3.089,4.7,3.086,4.8,0,.353-10.943.4-21.9.343-32.844-.063-12.5-.277-25.009-.57-37.511q-.437-18.6-1.1-37.2-.546-15.628-1.225-31.251c-.294-6.756-.6-13.513-.971-20.265q-.04-.732-.083-1.464c-.178-3.071-4.979-3.091-4.8,0Z"/><path class="b" d="M84.519,188.8a51.683,51.683,0,0,0,29.533,17.232,49.271,49.271,0,0,0,32.993-5.589A51.976,51.976,0,0,0,162.1,187.79a2.474,2.474,0,0,0,0-3.395,2.418,2.418,0,0,0-3.394,0,47.824,47.824,0,0,1-26.63,16.686,44.038,44.038,0,0,1-30.145-4.361A48.005,48.005,0,0,1,87.913,185.4a2.419,2.419,0,0,0-3.394,0,2.45,2.45,0,0,0,0,3.394Z"/><path class="b" d="M84.558,172.411a213.153,213.153,0,0,0-36.366,19.063c-5.708,3.677-11.463,7.448-16.3,12.253a41.319,41.319,0,0,0-6.268,7.861,60.489,60.489,0,0,0-4.557,9.977,211.787,211.787,0,0,0-9.2,33.688c-2.512,12.576-4.424,25.266-6.2,37.964C3.777,306.73,2.113,320.276.04,333.763a2.476,2.476,0,0,0,1.676,2.952,2.419,2.419,0,0,0,2.953-1.676c3.723-24.225,6.249-48.626,10.712-72.738a246.881,246.881,0,0,1,8.278-33.819c2.044-6.075,4.222-12.417,8.2-17.534,3.906-5.03,9.083-8.927,14.338-12.44,12.543-8.385,25.61-15.862,39.641-21.468a2.474,2.474,0,0,0,1.676-2.952,2.417,2.417,0,0,0-2.952-1.677Z"/><path class="b" d="M195.518,253.126a113.826,113.826,0,0,1-1.747,17.856c-.482,2.97-1,5.934-1.469,8.906a59.857,59.857,0,0,0-1.038,8.539c-.112,8.939.471,17.875.812,26.8.244,6.388.393,12.778.4,19.171,0,3.088,4.8,3.094,4.8,0-.006-10.576-.5-21.13-.923-31.695-.172-4.277-.314-8.557-.3-12.838.021-5.525,1.26-11.007,2.156-16.446a127.544,127.544,0,0,0,2.109-20.3c.01-3.089-4.79-3.093-4.8,0Z"/><path class="b" d="M161.093,177.04a182.677,182.677,0,0,1,22.6,10.871A217.544,217.544,0,0,1,205,201.487a54.194,54.194,0,0,1,8.892,8.036,37.935,37.935,0,0,1,6.36,10.8c2.217,5.492,3.979,11.148,5.792,16.782,2.454,7.623,4.863,15.268,7.571,22.807a2.462,2.462,0,0,0,2.953,1.676,2.42,2.42,0,0,0,1.676-2.952c-4.479-12.469-7.886-25.326-12.623-37.7a49.433,49.433,0,0,0-6.157-12.078,50.377,50.377,0,0,0-9.076-9.239,184.275,184.275,0,0,0-21.8-14.413,193.357,193.357,0,0,0-26.223-12.791,2.417,2.417,0,0,0-2.952,1.677,2.458,2.458,0,0,0,1.676,2.952Z"/><path class="b" d="M158.581,174.726c-.357,6.17-.636,12.345-.912,18.52q-.675,15.081-1.214,30.169-.665,18.381-1.135,36.769c-.316,12.577-.556,25.157-.655,37.739-.09,11.242-.083,22.489.208,33.729q.048,1.8.105,3.607c.1,3.081,4.9,3.094,4.8,0-.353-10.943-.4-21.9-.343-32.844.063-12.5.277-25.009.571-37.511q.436-18.6,1.1-37.2.546-15.628,1.225-31.251c.3-6.756.6-13.513.972-20.265q.04-.732.082-1.464c.179-3.086-4.622-3.076-4.8,0Z"/><path class="b" d="M233.849,265.633q9.378-9.52,18.779-19.019,4.3-4.325,8.625-8.623,2.342-2.325,4.691-4.644l2.51-2.474,1.306-1.285c.171-.168,1.363-1.1.758-.9h-1.276q-.59-.6-.079.066l.237.35q.357.525.72,1.044.728,1.04,1.481,2.059,1.563,2.117,3.225,4.159a99.259,99.259,0,0,0,6.8,7.524,123.72,123.72,0,0,0,15.249,12.553l-.861-3.284a401.1,401.1,0,0,1-40.719,46.606Q249.75,305.2,244,310.42c-3.292,2.988-6.863,6.224-11.3,7.3-9.031,2.186-16.113-7.093-21.177-13.07a99.158,99.158,0,0,1-8.114-10.743,88.251,88.251,0,0,1-6.665-12.948,2.415,2.415,0,0,0-3.284-.861,2.465,2.465,0,0,0-.861,3.284,91.333,91.333,0,0,0,13.684,22.453c5.858,7.13,12.615,15.954,22.518,16.925,5.022.493,9.757-1.8,13.65-4.768a147.139,147.139,0,0,0,11.967-10.708Q266.157,296.1,276.972,284q12.228-13.679,23.184-28.422c.827-1.109.092-2.594-.861-3.284a116.153,116.153,0,0,1-14.128-11.653,111.8,111.8,0,0,1-12.095-14.664c-1.03-1.445-2.6-2.557-4.422-1.7-1.511.711-2.726,2.35-3.911,3.516q-3.447,3.394-6.88,6.8-6.064,6.025-12.077,12.1-7.68,7.753-15.327,15.54c-2.17,2.2,1.222,5.6,3.394,3.394Z"/><path class="b" d="M112.9,131.845a21.228,21.228,0,0,0,10.223,2.361c3.637-.024,7.341-.728,10.258-3a2.413,2.413,0,0,0,0-3.394,2.462,2.462,0,0,0-3.394,0c.71-.553.095-.085-.087.031-.208.134-.423.257-.642.372-.151.079-.9.393-.305.165-.294.112-.586.226-.885.322a15.23,15.23,0,0,1-5.279.705,15.86,15.86,0,0,1-5.036-.678c-.324-.1-.64-.213-.959-.323-.1-.035-.2-.089-.31-.12.591.173.17.076.014,0-.4-.186-.788-.382-1.176-.586a2.452,2.452,0,0,0-3.283.861,2.425,2.425,0,0,0,.861,3.283Z"/><path class="b" d="M122.036,107.588a48.658,48.658,0,0,1,1.145,5.241l-.085-.638a3.18,3.18,0,0,1,.019.723l.086-.638a1.792,1.792,0,0,1-.079.325l.241-.573a1.282,1.282,0,0,1-.114.209l.375-.486a1.093,1.093,0,0,1-.171.169l.485-.375a3.356,3.356,0,0,1-.415.22l.574-.242a3.054,3.054,0,0,1-.7.2l.638-.086a2.831,2.831,0,0,1-.657,0l.638.086c-.247-.035-.49-.095-.738-.128a2.649,2.649,0,0,0-1.849.241,2.4,2.4,0,0,0-.861,3.284,2.3,2.3,0,0,0,1.434,1.1c.538.073,1.061.21,1.608.234a5.085,5.085,0,0,0,2.336-.551,3.305,3.305,0,0,0,1.853-2.189,5.6,5.6,0,0,0-.025-2.39c-.285-1.689-.675-3.362-1.109-5.018a2.4,2.4,0,0,0-4.629,1.276Z"/><path class="b" d="M94.05,92.824c-.875,2.844-.3,9.386,5.083,9.942,7.121-.042,7.5-7.952,5.1-11.671C102.273,88.05,96.5,86.784,94.05,92.824Z"/><path class="b" d="M151.075,92.824c.875,2.844.305,9.386-5.083,9.942-7.121-.042-7.5-7.952-5.1-11.671C142.852,88.05,148.623,86.784,151.075,92.824Z"/></svg>